<svg xmlns="http://www.w3.org/2000/svg" width="21.998" height="21.993" viewBox="0 0 21.998 21.993">
    <path data-name="Union 6" d="M21161.48 2850h-6.664a3.7 3.7 0 0 1-3.611-2.572 3.975 3.975 0 0 1-.193-1.228q-.023-6.7-.01-13.406a3.729 3.729 0 0 1 3.779-3.785q6.718-.015 13.428 0a3.733 3.733 0 0 1 3.785 3.785q.006 6.708 0 13.426a3.736 3.736 0 0 1-3.791 3.775q-1.682.008-3.361.006zm-6.658-19.493a2.223 2.223 0 0 0-2.316 2.312q-.009 6.677 0 13.366a2.223 2.223 0 0 0 2.316 2.311q6.68.007 13.365-.01a2.373 2.373 0 0 0 .986-.206 2.168 2.168 0 0 0 1.32-2.126v-6.643q0-3.331-.006-6.663a2.226 2.226 0 0 0-2.32-2.341h-13.345zm6.477 13.461a.746.746 0 0 1-.547-.772v-2.948h-.266c-.906 0-1.818.005-2.727-.005a.741.741 0 0 1-.676-1.083.757.757 0 0 1 .725-.406h2.943v-3a.746.746 0 0 1 1.158-.627.758.758 0 0 1 .336.687c-.006.892 0 1.79 0 2.682v.256h.932c.7 0 1.4-.005 2.107 0a.729.729 0 0 1 .709.672.743.743 0 0 1-.555.787 1.132 1.132 0 0 1-.32.03h-2.873v.261c0 .907.006 1.815-.006 2.727a.736.736 0 0 1-.732.76.831.831 0 0 1-.207-.021z" transform="translate(-21150.498 -2828.508)" style="stroke:transparent;stroke-miterlimit:10"/>
</svg>
