<svg xmlns="http://www.w3.org/2000/svg" width="10.793" height="20" viewBox="0 0 10.793 20">
    <path data-name="Path 139" d="M700.741 13.869q-4.536-4.52-9.07-9.043a1.949 1.949 0 0 0-.157-.146.765.765 0 0 0-1.216.372.821.821 0 0 0 .279.875l8.42 8.395.18.193-.169.171q-4.2 4.182-8.392 8.367a1.946 1.946 0 0 0-.209.231.767.767 0 0 0 .414 1.192.821.821 0 0 0 .855-.286q4.387-4.38 8.777-8.756c.124-.124.251-.246.372-.374a.777.777 0 0 0 .227-.543.876.876 0 0 0-.311-.647" transform="translate(-690.259 -4.507)" style="fill:#ddb14a"/>
</svg>
