<svg xmlns="http://www.w3.org/2000/svg" width="20.356" height="25" viewBox="0 0 20.356 25">
    <path data-name="Path 92" d="M20.331 21.312c-.171-1.624-.327-3.249-.491-4.874-.321-3.184-.643-6.171-.964-9.354a.85.85 0 0 0-.95-.787h-2.54c0-.631.024-1.229 0-1.826A4.971 4.971 0 0 0 10.475.006a5.035 5.035 0 0 0-5.5 4.605c-.017.549 0 1.1 0 1.685H2.448a.849.849 0 0 0-.957.8l-.4 3.968C.918 12.786.744 14.312.57 16.035c-.156 1.543-.314 3.086-.464 4.629a5.087 5.087 0 0 0 0 1.932 3.431 3.431 0 0 0 3.45 2.4q5.107.006 10.214 0h3.07a3.635 3.635 0 0 0 1.858-.463 3.076 3.076 0 0 0 1.642-3.224M7.08 3.291a3.635 3.635 0 0 1 3.752-1.664 3.214 3.214 0 0 1 2.764 2.627 17.355 17.355 0 0 1 .014 2.033H6.698a6.242 6.242 0 0 1 .382-3m10.944 19.744a1.843 1.843 0 0 1-1.171.39H3.517a1.608 1.608 0 0 1-1.759-1.648c.043-.875.155-1.748.242-2.621q.228-2.3.464-4.6c.175-1.738.35-3.28.524-5.019l.161-1.634h1.815c0 .785-.009 1.555 0 2.325a.866.866 0 0 0 1.309.69.773.773 0 0 0 .427-.723v-2.3h6.954v1.9c0 .156-.005.312 0 .468a.834.834 0 0 0 .881.768.822.822 0 0 0 .853-.794c.01-.7 0-1.394 0-2.091v-.251h1.816c.047.44.1.878.14 1.317.234 2.318.466 4.44.7 6.758.184 1.836.365 3.674.554 5.51a1.6 1.6 0 0 1-.574 1.562"/>
</svg>
