<svg xmlns="http://www.w3.org/2000/svg" width="29" height="18.413" viewBox="0 0 29 18.413">
    <path data-name="Path 68" d="M28.788 8.271c-1.043-.459-2.087-.916-3.124-1.391a.788.788 0 0 1-.361-.349Q23.847 3.407 22.424.27a.388.388 0 0 0-.417-.27q-9.115.012-18.23.007A3.773 3.773 0 0 0 .005 3.778V15.69a.319.319 0 0 0 .319.319h2.775a.272.272 0 0 1 .3.211 3.355 3.355 0 0 0 6.293.01.291.291 0 0 1 .325-.222q4.487.009 8.974 0a.273.273 0 0 1 .31.2 3.354 3.354 0 0 0 6.3 0 .273.273 0 0 1 .31-.2c.915.006 1.83 0 2.746 0h.321c.01-.073.018-.1.018-.129q0-3.663.006-7.327c0-.17-.083-.226-.212-.283m-9.8-6.565c.711 0 1.414 0 2.118.006.053 0 .127.073.153.13q1.071 2.317 2.133 4.64c.007.015 0 .036 0 .079h-4.4zM6.547 16.714a1.658 1.658 0 1 1 1.664-1.644 1.667 1.667 0 0 1-1.664 1.644m15.911 0a1.658 1.658 0 1 1 1.659-1.653 1.661 1.661 0 0 1-1.659 1.653m4.836-2.543a1.011 1.011 0 0 1-.021.137c-.483 0-.961.008-1.439-.01-.059 0-.136-.132-.165-.217a3.284 3.284 0 0 0-2.525-2.307 3.328 3.328 0 0 0-3.894 2.268.321.321 0 0 1-.369.273q-4.389-.012-8.777 0a.3.3 0 0 1-.356-.252 3.352 3.352 0 0 0-6.409.005c-.057.184-.129.257-.329.249-.423-.017-.846-.005-1.29-.005V9.373h8.288a.847.847 0 0 0 .847-.847v-.005a.847.847 0 0 0-.847-.847H1.717V6.09h10.712a.847.847 0 0 0 0-1.694H1.739a2.137 2.137 0 0 1 1.1-2.488 2.064 2.064 0 0 1 .816-.194q6.738-.017 13.477-.008c.036 0 .073.006.137.012v7.736a.853.853 0 1 0 1.705 0V8.27H24.342a1.163 1.163 0 0 1 .456.095q1.158.5 2.3 1.024a.359.359 0 0 1 .19.25c.011 1.509.008 3.018.007 4.527"/>
</svg>
