<svg xmlns="http://www.w3.org/2000/svg" width="16" height="15.999" viewBox="0 0 16 15.999">
    <path data-name="Path 78" d="M15.643 14.174Q12.62 11.155 9.6 8.132c-.043-.042-.083-.087-.141-.149.057-.047.109-.084.153-.128q2.994-2.992 5.987-5.987a2.18 2.18 0 0 0 .189-.207A1.037 1.037 0 0 0 14.18.353q-3.019 3.023-6.042 6.043c-.043.043-.089.084-.163.154a1.219 1.219 0 0 0-.107-.148Q4.882 3.413 1.893.425c-.059-.059-.117-.119-.18-.173A1.037 1.037 0 0 0 .352 1.817q3.021 3.022 6.043 6.042a2.1 2.1 0 0 0 .186.144 1.466 1.466 0 0 0-.172.122q-3.006 3-6.01 6.009c-.048.047-.1.095-.141.146a1.03 1.03 0 0 0 .071 1.437 1.048 1.048 0 0 0 1.5-.076q3.016-3.015 6.031-6.032a1.846 1.846 0 0 0 .134-.179c.077.089.115.138.159.182l6 6a1.936 1.936 0 0 0 .184.168 1.031 1.031 0 0 0 1.644-.6 1.043 1.043 0 0 0-.332-1"/>
</svg>
