<svg xmlns="http://www.w3.org/2000/svg" width="24" height="23.999" viewBox="0 0 24 23.999">
    <path data-name="Union 18" d="M21165.445 2852a2.029 2.029 0 0 1-2.125-2.13v-8.055a2.027 2.027 0 0 1 2.125-2.135h6.438a2.03 2.03 0 0 1 2.115 2.12c.006 1.35 0 2.7 0 4.051v4a2.03 2.03 0 0 1-2.137 2.146zm-.482-10.159v7.982c0 .414.121.534.533.534h6.314c.43 0 .545-.115.545-.544v-7.982c0-.377-.127-.508-.508-.508h-6.361c-.398-.002-.523.124-.523.516zm-8.625 10.159h-3.209a2.034 2.034 0 0 1-2.129-2.13v-4.773a2.028 2.028 0 0 1 2.123-2.13q3.22-.008 6.439 0a2.021 2.021 0 0 1 2.113 2.115c.006 1.6.006 3.2 0 4.8a2.028 2.028 0 0 1-2.135 2.12zm-3.7-6.867v4.7c0 .408.121.529.545.529h6.279c.457 0 .566-.11.566-.555v-4.643c0-.434-.109-.549-.539-.549h-6.307c-.418-.007-.539.108-.539.517zm.471-3.811a2.031 2.031 0 0 1-2.113-2.12v-8.055a2.034 2.034 0 0 1 2.141-2.146h6.412a2.026 2.026 0 0 1 2.123 2.13q.009 4.028 0 8.061a2.024 2.024 0 0 1-2.119 2.13h-4.3q-1.065.001-2.14-.001zm-.471-10.112v7.9c0 .45.109.565.555.565h6.285c.441 0 .551-.115.551-.565v-7.9c0-.45-.109-.565-.551-.565h-6.285c-.441-.001-.55.114-.55.564zm16 6.825c-1.059 0-2.121.005-3.178 0a2.033 2.033 0 0 1-2.141-2.146v-4.747a2.032 2.032 0 0 1 2.141-2.141h6.387a2.031 2.031 0 0 1 2.15 2.162v4.721a2.031 2.031 0 0 1-2.15 2.151h-1.07zm-3.676-6.914v4.794c0 .345.141.476.488.476h6.416c.357 0 .488-.131.488-.5v-4.747c0-.377-.127-.5-.514-.5h-6.385c-.355 0-.492.131-.492.476z" transform="translate(-21150.5 -2828.5)" style="fill:#ddb14a;stroke:transparent;stroke-miterlimit:10"/>
</svg>
