<svg xmlns="http://www.w3.org/2000/svg" width="22" height="20.586" viewBox="0 0 22 20.586">
    <path data-name="Path 169" d="M594.3 9.679a3.452 3.452 0 0 0-.049-.643 3.01 3.01 0 0 0-3.025-2.5h-1.151c0-.209.006-.394 0-.578a2.362 2.362 0 0 0-.049-.53.839.839 0 0 0-1.639.234c-.008.287 0 .573 0 .856h-10.158v-.824a.844.844 0 1 0-1.689-.025c-.013.279 0 .56 0 .862h-1.248A2.834 2.834 0 0 0 573.73 7a3 3 0 0 0-1.422 2.668v10.749c0 1.39-.005.523 0 1.913a3.022 3.022 0 0 0 3.106 3.1h15.788a3.305 3.305 0 0 0 .708-.069 3.019 3.019 0 0 0 2.393-3.075V9.691M574 9.661a1.34 1.34 0 0 1 1.434-1.436h1.1v.761a.85.85 0 1 0 1.692.01v-.752h10.159c0 .279-.007.566 0 .852a.842.842 0 0 0 1.4.6.85.85 0 0 0 .287-.676v-.793a6.207 6.207 0 0 1 1.637.08 1.168 1.168 0 0 1 .869 1.079c.04.866.011 1.736.011 2.623h-18.577c0-.064-.012-.135-.012-.205V9.663m18.615 4.313v8.27a1.349 1.349 0 0 1-1.479 1.483h-15.658A1.352 1.352 0 0 1 574 22.243v-8.506h18.615z" transform="translate(-572.307 -4.836)" style="fill:#ddb14a"/>
</svg>
