<svg xmlns="http://www.w3.org/2000/svg" width="48.022" height="47.932" viewBox="0 0 48.022 47.932">
    <defs>
        <clipPath id="rmfft8xmaa">
            <path data-name="Rectangle 31" style="fill:#ddb14a" d="M0 0h48.022v47.932H0z"/>
        </clipPath>
    </defs>
    <g data-name="Group 118">
        <g data-name="Group 101">
            <g data-name="Group 100" style="clip-path:url(#rmfft8xmaa)">
                <path data-name="Path 116" d="m20.259 0 9.121 4.556q5.025 2.505 10.054 5a1.053 1.053 0 0 1 .607 1.023q-.009 4.026-.015 8.051v.281A1 1 0 0 1 39 19.957a.985.985 0 0 1-.98-1.038c-.021-.686-.006-1.373-.006-2.059v-4.729c-.207.093-.347.151-.482.218Q29.07 16.571 20.614 20.8a1.269 1.269 0 0 1-1.24-.012q-3.928-1.982-7.868-3.94c-.121-.06-.249-.106-.423-.178v1.818c0 1.31.007 2.621-.006 3.932a.954.954 0 0 1-.994 1.011.969.969 0 0 1-.983-1.024c-.009-2.06-.016-4.119.005-6.179a.789.789 0 0 0-.508-.852c-2.036-.985-4.053-2.009-6.077-3.019-.148-.074-.3-.139-.5-.232-.011.22-.025.37-.025.519q0 7.629-.008 15.259a.672.672 0 0 0 .4.688q8.4 4.642 16.787 9.309a4.083 4.083 0 0 1 .364.212.993.993 0 0 1 .323 1.321 1.009 1.009 0 0 1-1.3.408 3.7 3.7 0 0 1-.33-.177Q9.514 34.826.8 29.977A5.323 5.323 0 0 1 0 29.3V10.111a3.421 3.421 0 0 1 .648-.564Q8 5.858 15.37 2.193C16.817 1.471 18.255.731 19.7 0zm16.473 10.485c-.183-.1-.311-.183-.445-.25-2.261-1.129-4.525-2.251-6.78-3.391a.8.8 0 0 0-.817 0q-7.926 3.976-15.862 7.932c-.145.072-.287.152-.469.249.179.1.3.164.426.227 2.26 1.129 4.525 2.25 6.778 3.394a.891.891 0 0 0 .908 0q7.9-3.966 15.821-7.909c.133-.067.26-.146.44-.249m-33.46-.013c.2.112.312.183.432.243 2 1 3.994 1.986 5.982 3a.808.808 0 0 0 .823-.009q7.927-3.971 15.862-7.925c.133-.066.26-.145.438-.246-.181-.1-.311-.179-.446-.246-1.983-.988-3.97-1.969-5.946-2.97a.8.8 0 0 0-.82-.006q-5.2 2.618-10.422 5.209c-1.939.968-3.876 1.939-5.9 2.953" style="fill:#ddb14a"/>
                <path data-name="Path 117" d="M94.479 82.334c-.142.731-.241 1.473-.432 2.19a12.978 12.978 0 1 1 .253-5.4c.055.353.119.7.179 1.055zm-2-1.34a11.009 11.009 0 1 0-10.76 11.232 11.011 11.011 0 0 0 10.758-11.232" transform="translate(-46.456 -46.292)" style="fill:#ddb14a"/>
                <path data-name="Path 118" d="M105.766 91.4v-3.226c0-.779.355-1.2.987-1.207s1 .438 1 1.2c0 1.964.008 3.928-.006 5.891a.747.747 0 0 0 .319.666q2.078 1.634 4.13 3.3a1.588 1.588 0 0 1 .51.693.872.872 0 0 1-.414 1.05.983.983 0 0 1-1.215-.1c-1.329-1.061-2.662-2.115-3.985-3.183-1.546-1.247-1.312-.782-1.33-2.794-.007-.764 0-1.527 0-2.291" transform="translate(-71.742 -58.992)" style="fill:#ddb14a"/>
            </g>
        </g>
    </g>
</svg>
