<svg xmlns="http://www.w3.org/2000/svg" width="22" height="20.81" viewBox="0 0 22 20.81">
    <path data-name="Union 18" d="M21153.307 2849.812a2.227 2.227 0 0 1-2.307-2.31v-14.731a2.224 2.224 0 0 1 1.828-2.242 3.123 3.123 0 0 1 .527-.034c2.883-.005 6.941-.005 9.828-.005.527 0 .838.246.877.68a.736.736 0 0 1-.684.8h-10.06a.744.744 0 0 0-.822.813c-.006.646-.006 1.286-.006 1.931v12.637a2.549 2.549 0 0 0 .014.325.723.723 0 0 0 .621.631 2.84 2.84 0 0 0 .287.01h14.2a1.509 1.509 0 0 0 .365-.03.718.718 0 0 0 .541-.739c.01-.813.006-1.626.006-2.439v-4.813a1.582 1.582 0 0 1 .045-.4.739.739 0 0 1 1.408.044 1.376 1.376 0 0 1 .035.32v7.237a2.219 2.219 0 0 1-1.725 2.242 2.568 2.568 0 0 1-.58.064zm3.738-4.537a.768.768 0 0 1-.346-1c.381-1.138.8-2.271 1.135-3.424a4.418 4.418 0 0 1 1.2-1.946c3.021-2.976 6.006-5.981 9-8.986a3.02 3.02 0 0 1 2.207-.921 2.851 2.851 0 0 1 2.01 4.744 3.19 3.19 0 0 1-.221.237q-4.775 4.774-9.549 9.533a1.6 1.6 0 0 1-.592.365c-1.383.478-2.768.931-4.156 1.394a1.157 1.157 0 0 1-.371.071.742.742 0 0 1-.317-.067zm12.063-14.307q-4.746 4.737-9.484 9.479a.463.463 0 0 0-.123.158c-.316.931-.621 1.857-.945 2.828.971-.32 1.9-.631 2.826-.946a.493.493 0 0 0 .188-.148q4.717-4.708 9.43-9.425c.059-.059.119-.128.176-.192a1.352 1.352 0 0 0-1-2.22 1.517 1.517 0 0 0-1.069.466z" transform="translate(-21150.998 -2829.002)" style="fill:#ddb14a"/>
</svg>
