<svg xmlns="http://www.w3.org/2000/svg" width="20.043" height="20.044" viewBox="0 0 20.043 20.044">
    <defs>
        <clipPath id="55x8u8ofda">
            <path data-name="Rectangle 34" style="fill:none" d="M0 0h20.043v20.044H0z"/>
        </clipPath>
    </defs>
    <g data-name="Group 107">
        <g data-name="Group 106" style="clip-path:url(#55x8u8ofda)">
            <path data-name="Path 124" d="M20.044 10.042v7.554a2.352 2.352 0 0 1-2.454 2.447H2.462a2.354 2.354 0 0 1-2.461-2.459V2.456A2.352 2.352 0 0 1 2.464 0h15.128a2.351 2.351 0 0 1 2.452 2.449v7.593m-6.963 8.434h4.536a.79.79 0 0 0 .859-.866V2.441a.792.792 0 0 0-.871-.874H2.437a.791.791 0 0 0-.869.875v15.149a.8.8 0 0 0 .88.885h8.19v-5.718H8.119v-2.43h2.529V7.791a3.575 3.575 0 0 1 1.711-3.115 3.89 3.89 0 0 1 2.782-.512c.287.038.576.067.855.1v2.274h-1.679a1.152 1.152 0 0 0-1.24 1.23v2.388c0 .056.007.112.012.184h2.785c-.1.818-.2 1.617-.294 2.433h-2.5z"/>
        </g>
    </g>
</svg>
