<svg xmlns="http://www.w3.org/2000/svg" width="24.302" height="20.362" viewBox="0 0 24.302 20.362">
    <path data-name="Path 177" d="M110.807 7.655a6.994 6.994 0 0 0-5.814-5.261 6.658 6.658 0 0 0-4.5.981 6.5 6.5 0 0 0-1.47 1.225A6.643 6.643 0 0 0 92.4 2.524a7.084 7.084 0 0 0-4.316 10.568 16.955 16.955 0 0 0 3.152 3.761 44.624 44.624 0 0 0 7.4 5.408.813.813 0 0 0 .425.127.851.851 0 0 0 .448-.138 55.236 55.236 0 0 0 4.779-3.227 28.352 28.352 0 0 0 4.342-4 12.429 12.429 0 0 0 1.573-2.22 7.04 7.04 0 0 0 .6-5.149m-2.123 4.57a12.725 12.725 0 0 1-2.05 2.63 32.883 32.883 0 0 1-4.876 4.073c-.616.43-1.256.85-1.876 1.256-.283.186-.567.371-.856.563a50.319 50.319 0 0 1-5.614-4.024 20.28 20.28 0 0 1-3.387-3.5 7.056 7.056 0 0 1-1.2-2.284 5.507 5.507 0 0 1-.142-.657c-.028-.2-.043-.408-.058-.606l-.019-.237a5.44 5.44 0 0 1 2.546-4.7 5.2 5.2 0 0 1 6.684.882 6.937 6.937 0 0 1 .522.654.827.827 0 0 0 .669.358h.007a.822.822 0 0 0 .667-.368 5.293 5.293 0 0 1 8.993.326 5.417 5.417 0 0 1-.011 5.638" transform="translate(-86.892 -2.175)" style="fill:#ddb14a;stroke:#ddb14a;stroke-width:.3px"/>
</svg>
