<svg xmlns="http://www.w3.org/2000/svg" width="20.07" height="20.07" viewBox="0 0 20.07 20.07">
    <defs>
        <clipPath id="znfptk5r8a">
            <path data-name="Rectangle 38" style="fill:none" d="M0 0h20.07v20.07H0z"/>
        </clipPath>
    </defs>
    <g data-name="Group 113">
        <g data-name="Group 112" style="clip-path:url(#znfptk5r8a)">
            <path data-name="Path 131" d="M20.07 2.452A2.354 2.354 0 0 0 17.615 0H2.468A2.355 2.355 0 0 0 0 2.46v15.148a2.357 2.357 0 0 0 2.466 2.462h15.147a2.355 2.355 0 0 0 2.457-2.45V2.456M18.5 17.634a.791.791 0 0 1-.861.868H2.451a.8.8 0 0 1-.881-.886V2.446a.793.793 0 0 1 .871-.877h15.188a.793.793 0 0 1 .872.875v15.189"/>
            <path data-name="Path 132" d="M10.044 5.165h-.007a5.067 5.067 0 0 0-.01 10.133h.008a5.067 5.067 0 0 0 .01-10.133m-.009 8.242a3.178 3.178 0 0 1 .003-6.355h.008a3.175 3.175 0 0 1-.012 6.35"/>
            <path data-name="Path 133" d="M15.504 3.511a1.383 1.383 0 0 0 0 2.765 1.383 1.383 0 0 0 0-2.765"/>
        </g>
    </g>
</svg>
