<svg xmlns="http://www.w3.org/2000/svg" width="19.047" height="25" viewBox="0 0 19.047 25">
    <path data-name="Union 12" d="M21159.293 2852.615a40.961 40.961 0 0 1-6.316-8.319 15.323 15.323 0 0 1-1.859-4.913 8.486 8.486 0 0 1 .229-3.81 8.9 8.9 0 0 1 3.148-4.661 9.166 9.166 0 0 1 5.764-1.912 8.875 8.875 0 0 1 7.434 4.333 8.751 8.751 0 0 1 .857 7.577 19.984 19.984 0 0 1-2.137 4.49 42.581 42.581 0 0 1-5.674 7.21.867.867 0 0 1-1.445 0zm-2.322-21.246a7.2 7.2 0 0 0-3.67 3.734 6.915 6.915 0 0 0-.537 3.891 12.4 12.4 0 0 0 1.34 3.848 29.9 29.9 0 0 0 3.434 5.175c.563.689 1.123 1.36 1.723 2.069.242.29.49.58.742.88a.564.564 0 0 1 .066-.095 44.676 44.676 0 0 0 4.229-5.3 19.873 19.873 0 0 0 2.754-5.531 7.247 7.247 0 0 0 .146-3.486 7.329 7.329 0 0 0-5.936-5.741 7.822 7.822 0 0 0-1.279-.109 7.12 7.12 0 0 0-3.012.665zm3.021 11.22a4.557 4.557 0 0 1-3.187-7.791 4.525 4.525 0 0 1 3.207-1.327h.014a4.559 4.559 0 0 1 0 9.118zm-2-6.592a2.87 2.87 0 0 0 2.027 4.9h.006a2.873 2.873 0 0 0 0-5.746h-.01a2.861 2.861 0 0 0-2.027.849z" transform="translate(-21150.498 -2828.5)" style="stroke:transparent;stroke-miterlimit:10"/>
</svg>
