<svg xmlns="http://www.w3.org/2000/svg" width="19.524" height="21" viewBox="0 0 19.524 21">
    <defs>
        <clipPath id="9uslyih2ga">
            <path data-name="Rectangle 30" style="fill:#ddb14a" d="M0 0h19.524v21H0z"/>
        </clipPath>
    </defs>
    <g data-name="Group 120">
        <g data-name="Group 98" style="clip-path:url(#9uslyih2ga)">
            <path data-name="Path 108" d="M12.538 19.319h-9.2a1.5 1.5 0 0 1-1.656-1.65V3.327a1.51 1.51 0 0 1 1.64-1.645h9.2a.941.941 0 0 0 .677-.256.807.807 0 0 0 .23-.587.841.841 0 0 0-.912-.839H8.593Q5.9 0 3.212.005a3.438 3.438 0 0 0-.825.1A3.161 3.161 0 0 0 0 3.165v14.569a3.506 3.506 0 0 0 .061.692A3.137 3.137 0 0 0 3.2 21h9.459a.846.846 0 0 0 .547-1.418.911.911 0 0 0-.665-.259" style="fill:#ddb14a"/>
            <path data-name="Path 109" d="M23.531 12.646h-.015l-.038-.048-4.54-4.541c-.062-.061-.1-.1-.143-.138a.841.841 0 0 0-.789-.183.817.817 0 0 0-.567.56.828.828 0 0 0 .246.885q1.056 1.053 2.109 2.108l.7.7c.034.034.068.07.11.115l.331.352H12.78a.1.1 0 0 1-.037.005h-.052a.826.826 0 0 0-.427.134.789.789 0 0 0-.074.052.853.853 0 0 0-.1.095.739.739 0 0 0-.081.1.808.808 0 0 0-.083.166l-.027.1a.888.888 0 0 0-.018.093.971.971 0 0 0 0 .1.9.9 0 0 0 .005.1c0 .028.01.058.017.088l.008.047c.007.022.015.036.02.051a.805.805 0 0 0 .083.166.759.759 0 0 0 .082.1.737.737 0 0 0 .169.146.829.829 0 0 0 .429.136h.052l.05.006.27-.006h7.871l-.331.352c-.042.045-.075.082-.11.115l-.7.7q-1.054 1.055-2.109 2.108a.828.828 0 0 0-.246.885.817.817 0 0 0 .567.56.841.841 0 0 0 .789-.183c.04-.035.078-.073.117-.111l4.623-4.621a.843.843 0 0 0 0-1.3" transform="translate(-4.313 -2.797)" style="fill:#ddb14a"/>
        </g>
    </g>
</svg>
