<svg xmlns="http://www.w3.org/2000/svg" width="20" height="21.693" viewBox="0 0 20 21.693">
    <path data-name="Union 20" d="M21161.008 2850.688h-.082c-.057 0-.115-.014-.17-.024a1.253 1.253 0 0 1-.135-.014 2.483 2.483 0 0 1-.369-.091c-.01 0-.02 0-.033-.009a2.579 2.579 0 0 1-1.775-2.408h-3.95c-.033 0-.062-.014-.1-.014a2.6 2.6 0 0 1-.34-.043c-.086-.019-.168-.043-.254-.067-.068-.019-.135-.048-.2-.072a2.216 2.216 0 0 1-.24-.11c-.07-.038-.137-.086-.205-.129s-.127-.081-.187-.129a2.636 2.636 0 0 1-.316-.306c-.061-.077-.113-.158-.168-.235-.033-.048-.066-.1-.094-.144a1.989 1.989 0 0 1-.143-.292 1.386 1.386 0 0 1-.055-.139 2.719 2.719 0 0 1-.086-.282c-.01-.038-.021-.072-.027-.11a1.042 1.042 0 0 1-.021-.173c0-.052-.012-.1-.018-.148a3.339 3.339 0 0 1 .018-.484v-.019c.006-.019.012-.038.016-.057.033-.22.086-.445.139-.665a9.613 9.613 0 0 1 .938-2.3c.227-.417.457-.828.682-1.244a7.709 7.709 0 0 0 .453-1.23c.014-.053.02-.11.029-.163a13.006 13.006 0 0 0 .082-1.771.759.759 0 0 1 .008-.115c0-.115.006-.225.016-.335.006-.086.006-.172.016-.258.008-.115.023-.23.037-.34a6.008 6.008 0 0 1 .383-1.517c.076-.191.166-.374.254-.55a6.193 6.193 0 0 1 .8-1.264 5.929 5.929 0 0 1 1.186-1.111c.174-.125.354-.244.541-.354a1.59 1.59 0 0 0 .111-.062 7.227 7.227 0 0 1 .951-.45c.256-.1.523-.172.795-.244l.043-.015c.023 0 .045 0 .063-.01.182-.048.365-.091.545-.143v-1.12a.87.87 0 0 1 .691-.91h.008a1.292 1.292 0 0 1 .139-.014h.033a1.241 1.241 0 0 1 .139.014h.01a.868.868 0 0 1 .689.91v1.12c.184.052.363.1.543.143.021 0 .043 0 .066.01l.043.015a8.024 8.024 0 0 1 .793.244 7.137 7.137 0 0 1 .953.45 6.808 6.808 0 0 1 .65.416 5.887 5.887 0 0 1 1.188 1.111 6.1 6.1 0 0 1 .8 1.264c.088.177.18.359.256.55a6.178 6.178 0 0 1 .383 1.517c.014.11.027.225.039.34.008.086.008.172.014.258.01.11.014.22.014.335a.756.756 0 0 1 .006.115 13.327 13.327 0 0 0 .086 1.771c.01.052.014.11.027.163a7.543 7.543 0 0 0 .457 1.23c.219.416.453.828.678 1.244a9.694 9.694 0 0 1 .938 2.3c.055.22.107.445.141.665a.3.3 0 0 1 .012.057v.019a2.866 2.866 0 0 1 .021.484c-.006.048-.016.1-.021.144a.754.754 0 0 1-.018.177.794.794 0 0 1-.033.11 2 2 0 0 1-.08.282 1.386 1.386 0 0 1-.055.139 2.207 2.207 0 0 1-.143.292.907.907 0 0 1-.1.144c-.053.077-.105.158-.166.235a2.5 2.5 0 0 1-.316.306c-.059.048-.127.086-.189.129s-.133.091-.2.129a2.216 2.216 0 0 1-.24.11c-.066.024-.135.053-.2.072-.086.024-.168.048-.254.067a2.665 2.665 0 0 1-.344.043c-.031 0-.059.014-.092.014h-3.948a2.588 2.588 0 0 1-1.777 2.408c-.014 0-.023 0-.033.009a2.608 2.608 0 0 1-.369.091 1.253 1.253 0 0 1-.135.014c-.057.01-.113.019-.172.024-.017.005-.045 0-.07 0zm-.824-2.518a.821.821 0 0 0 1.643 0v-.014h-1.643zm.572-15.432a.654.654 0 0 0-.1 0 4.811 4.811 0 0 0-1.133.22 1.171 1.171 0 0 0-.127.038c-.057.024-.113.043-.17.067-.115.048-.23.1-.34.153a5.208 5.208 0 0 0-1.613 1.235 1.374 1.374 0 0 0-.1.12 3.696 3.696 0 0 0-.205.278 5.772 5.772 0 0 0-.23.374c-.053.1-.109.2-.158.3-.02.048-.041.091-.062.139a5.458 5.458 0 0 0-.416 2.03c-.02.627 0 1.259-.053 1.886a5.081 5.081 0 0 1-.613 1.987c-.053.115-.107.234-.172.344-.379.708-.77 1.412-1.1 2.144a6.563 6.563 0 0 0-.4 1.312 1.162 1.162 0 0 0-.031.225c0 .043.006.086.01.129s.016.081.025.12c0 .01 0 .019.008.029a.787.787 0 0 0 .059.148c.01.01.014.019.023.029a.588.588 0 0 0 .078.115.433.433 0 0 0 .068.062.367.367 0 0 0 .061.053.512.512 0 0 0 .129.072.2.2 0 0 0 .037.019 1.111 1.111 0 0 0 .16.048.121.121 0 0 0 .043.009.839.839 0 0 0 .2.019H21167.38a.878.878 0 0 0 .2-.019.131.131 0 0 0 .041-.009.8.8 0 0 0 .158-.048.225.225 0 0 0 .039-.019.549.549 0 0 0 .129-.072.483.483 0 0 0 .063-.053.517.517 0 0 0 .066-.062.857.857 0 0 0 .082-.115c.006-.01.008-.019.014-.029a.6.6 0 0 0 .061-.148c.006-.01.006-.019.012-.024.01-.043.016-.086.021-.125a.965.965 0 0 0 .012-.129 1.877 1.877 0 0 0-.027-.225 6.975 6.975 0 0 0-.4-1.312c-.33-.732-.723-1.436-1.1-2.144a7.35 7.35 0 0 1-.172-.344 5.214 5.214 0 0 1-.613-1.987c-.045-.627-.033-1.259-.051-1.886a5.5 5.5 0 0 0-.418-2.03l-.061-.139c-.049-.1-.105-.2-.158-.3a4.64 4.64 0 0 0-.234-.374 2.955 2.955 0 0 0-.2-.278 1.083 1.083 0 0 0-.1-.12 5.232 5.232 0 0 0-1.613-1.235 3.738 3.738 0 0 0-.34-.153c-.057-.024-.113-.043-.172-.067a1.283 1.283 0 0 0-.125-.038 4.807 4.807 0 0 0-1.135-.22.629.629 0 0 0-.1 0 3.287 3.287 0 0 0-.5 0zm-9.219 5.686a.82.82 0 0 1-.533-.732c-.014-.158 0-.325 0-.484a10.217 10.217 0 0 1 .934-3.776 9.983 9.983 0 0 1 1.607-2.451.844.844 0 0 1 1.3 1.077c-.33.46-.7.89-.988 1.374a8.094 8.094 0 0 0-1.156 4.145.886.886 0 0 1-.279.684.831.831 0 0 1-.559.229.857.857 0 0 1-.326-.065zm17.766-.761a9.805 9.805 0 0 0-.266-2.092 8.213 8.213 0 0 0-1.592-3.145c-.105-.134-.221-.263-.314-.4a.842.842 0 0 1 1.3-1.063 8.384 8.384 0 0 1 .594.723 9.951 9.951 0 0 1 1.818 4.279c.074.407.1.823.154 1.235 0 .144 0 .287-.006.426a.847.847 0 0 1-.812.862h-.029a.84.84 0 0 1-.85-.824z" transform="translate(-21150.998 -2829)" style="fill:#ddb14a"/>
</svg>
