<svg xmlns="http://www.w3.org/2000/svg" width="25" height="18.603" viewBox="0 0 25 18.603">
    <path data-name="Union 4" d="M21154.176 2846.6a3.044 3.044 0 0 1-3.178-3.176v-11.25a3.046 3.046 0 0 1 3.178-3.176h17.648a3.041 3.041 0 0 1 3.174 3.176v11.25a3.04 3.04 0 0 1-3.174 3.176zm-1.576-14.4v11.2a1.46 1.46 0 0 0 1.6 1.6h17.6a1.462 1.462 0 0 0 1.605-1.616v-11.169a1.458 1.458 0 0 0-1.605-1.613h-17.6a1.457 1.457 0 0 0-1.6 1.598zm3.984 11.2h-1.52a.8.8 0 1 1 .006-1.6q1.529-.006 3.066 0a.808.808 0 0 1 .865.8.816.816 0 0 1-.873.8zm14.252-8.8h-15.686a1.722 1.722 0 0 1-.324-.02.8.8 0 0 1-.623-.851.794.794 0 0 1 .781-.729c.584-.008 1.168 0 1.748 0h14.189a.8.8 0 0 1 .826 1.06.775.775 0 0 1-.687.536.957.957 0 0 1-.111.005z" transform="translate(-21150.498 -2828.497)" style="stroke:transparent;stroke-miterlimit:10"/>
</svg>
