<svg xmlns="http://www.w3.org/2000/svg" width="20.846" height="20.85" viewBox="0 0 20.846 20.85">
    <defs>
        <clipPath id="18vy2hew6a">
            <path data-name="Rectangle 39" style="fill:#ddb14a" d="M0 0h20.846v20.85H0z"/>
        </clipPath>
    </defs>
    <g data-name="Group 124">
        <g data-name="Group 115">
            <g data-name="Group 114" style="clip-path:url(#18vy2hew6a)">
                <path data-name="Path 134" d="M16.245 13.508a1.918 1.918 0 0 0-2.088-.38 3.079 3.079 0 0 0-1.109.811l-.792.8-.244.247A13.624 13.624 0 0 1 6.8 9.79a.934.934 0 0 0 .055-.053c.144-.147.29-.292.436-.437.336-.335.684-.681 1-1.044a2.015 2.015 0 0 0-.013-2.748 50.718 50.718 0 0 0-2.655-2.692 2.076 2.076 0 0 0-3.014-.043c-.445.387-.859.817-1.259 1.233q-.2.206-.4.409A3.453 3.453 0 0 0 0 7.063a8.457 8.457 0 0 0 .61 2.781 19.432 19.432 0 0 0 4.118 6.4 20.084 20.084 0 0 0 4.932 3.873 14.066 14.066 0 0 0 3.769 1.541c.243.054.49.092.736.13l.365.055h.788l.078-.024a.251.251 0 0 1 .052-.015 3.065 3.065 0 0 0 1.781-.8c.617-.6 1.271-1.243 1.883-1.95a2.053 2.053 0 0 0-.056-2.724 73.35 73.35 0 0 0-2.812-2.822M4.1 3.732a.841.841 0 0 1 .563.311q.931.93 1.859 1.862l.4.4c.056.056.111.114.162.177a.54.54 0 0 1-.009.812c-.453.479-.936.948-1.421 1.419a1.18 1.18 0 0 0-.3 1.612 11.839 11.839 0 0 0 2.14 3.043 14.435 14.435 0 0 0 3.245 2.693c.272.162.556.306.839.449a1.073 1.073 0 0 0 1.322-.22c.312-.306.62-.615.929-.925l.467-.466c.055-.055.109-.109.167-.159a.565.565 0 0 1 .854.022c.4.39.794.786 1.187 1.182l.549.55c.263.261.526.523.776.8a.591.591 0 0 1 .012.871 2.119 2.119 0 0 1-.146.165l-.453.462c-.288.293-.576.585-.86.882a2.016 2.016 0 0 1-1.744.6 9.384 9.384 0 0 1-3.3-1.035 19.468 19.468 0 0 1-8.021-7.409 12.457 12.457 0 0 1-1.639-3.89c-.046-.212-.071-.427-.1-.655-.012-.105-.024-.21-.036-.291a2.129 2.129 0 0 1 .693-1.661c.279-.265.549-.539.82-.813.157-.158.313-.316.471-.472a.848.848 0 0 1 .574-.316" transform="translate(0 -.994)" style="fill:#ddb14a"/>
                <path data-name="Path 135" d="M30.084 9.15a.407.407 0 0 1-.018-.06 11.259 11.259 0 0 0-4.558-7.171A11.118 11.118 0 0 0 21 .018a.8.8 0 0 0-.991.582.8.8 0 0 0 .654.944c.167.046.334.089.5.133a12.926 12.926 0 0 1 1.482.449 9.428 9.428 0 0 1 4.236 3.343 9.5 9.5 0 0 1 1.632 3.853.808.808 0 0 0 .774.761h.047a.775.775 0 0 0 .729-.58l.045-.04v-.21z" transform="translate(-9.264)" style="fill:#ddb14a"/>
                <path data-name="Path 136" d="M24.132 11.186a5.865 5.865 0 0 1 .571 1.631.82.82 0 0 0 .357.524.761.761 0 0 0 .582.1.8.8 0 0 0 .589-.972 6.93 6.93 0 0 0-5.6-5.561.8.8 0 0 0-.656.167.786.786 0 0 0-.276.611.777.777 0 0 0 .691.771 5.346 5.346 0 0 1 3.747 2.73" transform="translate(-9.126 -3.195)" style="fill:#ddb14a"/>
            </g>
        </g>
    </g>
</svg>
