<svg xmlns="http://www.w3.org/2000/svg" width="51.84" height="41.397" viewBox="0 0 51.84 41.397">
    <defs>
        <clipPath id="fxe3cebhfa">
            <path data-name="Rectangle 33" style="fill:#ddb14a" d="M0 0h51.84v41.397H0z"/>
        </clipPath>
    </defs>
    <g data-name="Group 117">
        <g data-name="Group 105">
            <g data-name="Group 104" style="clip-path:url(#fxe3cebhfa)">
                <path data-name="Path 121" d="M45.623 26.005c-1.48.886-2.86 1.663-4.186 2.525a1.635 1.635 0 0 1-2.017-.007c-1.621-1.038-3.318-1.956-4.938-2.994a11.225 11.225 0 0 1-5.447-9.8c-.052-3.458-.013-6.916-.01-10.374 0-.775.179-1.023.911-1.317 3.293-1.32 6.58-2.649 9.885-3.938a1.858 1.858 0 0 1 1.234 0c3.3 1.283 6.591 2.616 9.886 3.925a1.189 1.189 0 0 1 .9 1.166c-.016 3.817.054 7.636-.079 11.449a10.644 10.644 0 0 1-3.687 7.594 1.059 1.059 0 0 0-.392.866q.019 6.094.007 12.189a3.808 3.808 0 0 1-4.1 4.1H4.141A3.82 3.82 0 0 1 0 37.258V10.274a3.792 3.792 0 0 1 4.119-4.131h21.425a3.073 3.073 0 0 1 .621.03 1.026 1.026 0 0 1-.093 2.011 4.626 4.626 0 0 1-.623.015H4.195c-1.491 0-2.1.608-2.105 2.087v2.079h23.3c.208 0 .417-.008.623.01a1 1 0 0 1 .935.961 1.022 1.022 0 0 1-.884 1.073 4.344 4.344 0 0 1-.622.017H2.089v22.82c0 1.458.6 2.062 2.065 2.062h39.393c1.441 0 2.075-.632 2.076-2.069V26.695zm4.12-14.6h.006c0-1.72-.008-3.439.007-5.158a.567.567 0 0 0-.412-.63c-2.859-1.13-5.709-2.281-8.569-3.411a.946.946 0 0 0-.635-.012Q35.8 3.91 31.479 5.671a.7.7 0 0 0-.352.519c-.019 3.288-.066 6.577.007 9.863a8.911 8.911 0 0 0 4.25 7.581c1.544 1.016 3.156 1.928 4.751 2.865a.694.694 0 0 0 .591.006c1.58-.925 3.177-1.827 4.705-2.832A9.073 9.073 0 0 0 49.736 16c.046-1.529.008-3.061.008-4.591" style="fill:#ddb14a"/>
                <path data-name="Path 122" d="M22.77 95.735c-1.341 0-2.681.015-4.022-.006a1.038 1.038 0 0 1-.983-1.561 1.147 1.147 0 0 1 1.122-.506c2.492.007 4.985 0 7.478 0h.453a1.054 1.054 0 0 1 1.162 1.039 1.073 1.073 0 0 1-1.188 1.026c-1.133.011-2.267 0-3.4 0h-.622" transform="translate(-11.388 -60.563)" style="fill:#ddb14a"/>
                <path data-name="Path 123" d="M103.642 32.9a3.243 3.243 0 0 1 .362-.6q2.07-2.1 4.162-4.174c.564-.562 1.191-.618 1.638-.162s.4 1.056-.183 1.639q-2.581 2.588-5.17 5.17a1.079 1.079 0 0 1-1.8.016q-1.248-1.236-2.484-2.485a1.043 1.043 0 1 1 1.452-1.467c.628.623 1.239 1.265 2.021 2.067" transform="translate(-64.493 -17.886)" style="fill:#ddb14a"/>
            </g>
        </g>
    </g>
</svg>
