<svg xmlns="http://www.w3.org/2000/svg" width="52.21" height="46.162" viewBox="0 0 52.21 46.162">
    <defs>
        <clipPath id="v9ymf1t5ga">
            <path data-name="Rectangle 32" style="fill:#ddb14a" d="M0 0h52.21v46.162H0z"/>
        </clipPath>
    </defs>
    <g data-name="Group 116">
        <g data-name="Group 103">
            <g data-name="Group 102" style="clip-path:url(#v9ymf1t5ga)">
                <path data-name="Path 119" d="M32.295 30.308a4.708 4.708 0 0 0 5.019-5.014V4.981a4.678 4.678 0 0 0-5-4.978h-17.82C11.3 0 8 0 4.751.007A4.635 4.635 0 0 0 .017 4.6C0 10.9-.005 17.807.016 25.722A4.546 4.546 0 0 0 3.6 30.15a9.883 9.883 0 0 0 1.924.144c.244 0 .5.005.741.015.8.031 1.088.316 1.094 1.088.008 1.039.014 2.152 0 3.249a1.966 1.966 0 0 0 1.181 2.062 1.92 1.92 0 0 0 .754.165 2.192 2.192 0 0 0 1.541-.768c.773-.774 1.566-1.556 2.332-2.313.955-.942 1.942-1.917 2.9-2.887a1.872 1.872 0 0 1 1.444-.605h.011c4.417.017 9.248.019 14.77.007M9.307 31.415a2.823 2.823 0 0 0-3.051-3.047h-.511c-.365 0-.743 0-1.114-.014a2.7 2.7 0 0 1-2.675-2.774 832.172 832.172 0 0 1 0-5.912V5.04a2.781 2.781 0 0 1 3.07-3.094h27.262a2.781 2.781 0 0 1 3.079 3.084v20.308a2.754 2.754 0 0 1-3.016 3.027c-4.769.009-9.847.016-14.882-.006h-.022a3.559 3.559 0 0 0-2.7 1.12c-1.189 1.215-2.422 2.427-3.613 3.6q-.686.675-1.371 1.352a6.416 6.416 0 0 1-.3.274l-.155.14V31.415" style="fill:#ddb14a"/>
                <path data-name="Path 120" d="M90.944 33.177a4.539 4.539 0 0 0-4.244-4.515c-2.038-.088-4.114-.068-6.12-.048-.674.006-1.348.013-2.022.016a.939.939 0 0 0-.941.928.974.974 0 0 0 .934 1 3.37 3.37 0 0 0 .346.008h.123c.678 0 1.367.007 2.034.013 1.545.015 3.144.031 4.712-.035a3.1 3.1 0 0 1 2.367.822 3.263 3.263 0 0 1 .9 2.468C88.978 37.085 88.99 40.4 89 43.6c0 1.307.01 2.658.01 3.987v1.827c0 1.417 0 2.883-.005 4.324a2.7 2.7 0 0 1-2.683 2.771c-.367.017-.742.015-1.1.014H84.7a2.823 2.823 0 0 0-3.043 3.055v3.416l-.147-.131c-.11-.1-.19-.168-.266-.244q-.7-.693-1.406-1.381c-1.144-1.12-2.328-2.278-3.453-3.452a3.969 3.969 0 0 0-3.052-1.286h-.085c-2.534.037-5.11.028-7.6.019l-1.875-.006a2.759 2.759 0 0 1-3.058-3.045v-.611c0-.485.006-.987-.013-1.48a.948.948 0 0 0-.936-.933.973.973 0 0 0-.709.267.871.871 0 0 0-.274.616c0 .189-.01.378-.015.568a15.445 15.445 0 0 0 .061 2.509 4.629 4.629 0 0 0 4.871 4.055c3.489.017 6.647.016 9.654-.007h.024a1.983 1.983 0 0 1 1.54.628c1.006 1.022 2.045 2.046 3.049 3.036.718.708 1.46 1.439 2.184 2.164a2.14 2.14 0 0 0 1.509.746 1.981 1.981 0 0 0 1.94-2.147c-.005-.97-.005-2 0-3.249 0-.885.281-1.157 1.187-1.166h.522c.382 0 .778 0 1.166-.018a4.625 4.625 0 0 0 4.469-4.546c.027-6.8.026-13.775 0-20.72" transform="translate(-38.754 -18.865)" style="fill:#ddb14a"/>
            </g>
        </g>
    </g>
</svg>
