<svg xmlns="http://www.w3.org/2000/svg" width="21.85" height="21.854" viewBox="0 0 21.85 21.854">
    <defs>
        <clipPath id="7hnhigx8ua">
            <path data-name="Rectangle 39" style="fill:none" d="M0 0h21.85v21.854H0z"/>
        </clipPath>
    </defs>
    <g data-name="Group 119">
        <g data-name="Group 115">
            <g data-name="Group 114" style="clip-path:url(#7hnhigx8ua)">
                <path data-name="Path 134" d="M17.028 13.116a2.011 2.011 0 0 0-2.189-.4 3.227 3.227 0 0 0-1.163.85l-.83.84-.256.259a14.28 14.28 0 0 1-5.459-5.448 1.59 1.59 0 0 0 .058-.055c.151-.154.3-.306.457-.458.354-.349.717-.712 1.054-1.092a2.112 2.112 0 0 0-.014-2.881c-1-1.073-1.912-2-2.792-2.822a2.176 2.176 0 0 0-3.16-.048c-.466.406-.9.856-1.319 1.292q-.207.216-.415.429a3.62 3.62 0 0 0-1 2.779 8.864 8.864 0 0 0 .64 2.914 20.368 20.368 0 0 0 4.317 6.713 21.051 21.051 0 0 0 5.168 4.056 14.744 14.744 0 0 0 3.951 1.617c.255.056.514.1.772.137l.382.058h.826l.082-.025a.263.263 0 0 1 .055-.016 3.213 3.213 0 0 0 1.867-.839c.646-.624 1.332-1.3 1.974-2.044a2.152 2.152 0 0 0-.058-2.855c-.949-1.006-1.94-2-2.947-2.958M4.3 2.87a.881.881 0 0 1 .591.326q.976.975 1.949 1.952l.417.418c.058.059.116.12.169.185a.566.566 0 0 1-.009.852c-.475.5-.981.994-1.489 1.488a1.237 1.237 0 0 0-.318 1.69 12.409 12.409 0 0 0 2.243 3.19 15.13 15.13 0 0 0 3.4 2.823c.285.17.583.321.88.47a1.124 1.124 0 0 0 1.39-.23c.327-.321.65-.645.974-.97l.489-.489c.057-.057.114-.115.175-.167a.592.592 0 0 1 .895.023c.42.408.832.823 1.245 1.238l.576.576c.276.274.551.548.814.834a.619.619 0 0 1 .012.913 2.221 2.221 0 0 1-.153.173l-.475.484c-.3.307-.6.614-.9.925a2.113 2.113 0 0 1-1.828.629 9.836 9.836 0 0 1-3.454-1.085 20.406 20.406 0 0 1-8.407-7.766 13.057 13.057 0 0 1-1.721-4.077 6.617 6.617 0 0 1-.1-.686c-.013-.11-.025-.22-.038-.3a2.232 2.232 0 0 1 .723-1.746c.292-.278.576-.565.859-.852.164-.165.328-.331.493-.495A.889.889 0 0 1 4.3 2.87"/>
                <path data-name="Path 135" d="M21.823 9.59a.427.427 0 0 1-.019-.063 11.8 11.8 0 0 0-4.778-7.517A11.654 11.654 0 0 0 12.299.019a.834.834 0 0 0-1.036.614.84.84 0 0 0 .685.989c.175.048.35.093.526.139a13.549 13.549 0 0 1 1.553.47 9.883 9.883 0 0 1 4.44 3.5 9.961 9.961 0 0 1 1.711 4.038.847.847 0 0 0 .812.8h.049a.812.812 0 0 0 .764-.607l.047-.042V9.7z"/>
                <path data-name="Path 136" d="M15.728 8.376a6.148 6.148 0 0 1 .6 1.709.86.86 0 0 0 .374.549.8.8 0 0 0 .61.1.837.837 0 0 0 .617-1.019 7.263 7.263 0 0 0-5.876-5.824.841.841 0 0 0-.688.175.823.823 0 0 0-.29.64.815.815 0 0 0 .724.808 5.6 5.6 0 0 1 3.928 2.861"/>
            </g>
        </g>
    </g>
</svg>
