<svg xmlns="http://www.w3.org/2000/svg" width="24" height="23.996" viewBox="0 0 24 23.996">
    <path data-name="Union 3" d="M21151.008 2840.5a11.5 11.5 0 1 1 11.5 11.491 11.519 11.519 0 0 1-11.5-11.491zm1.867-.009a9.633 9.633 0 1 0 9.629-9.629 9.649 9.649 0 0 0-9.629 9.638zm7.313 3.689q-1.664-1.7-3.328-3.411a.935.935 0 1 1 1.34-1.293q1.295 1.32 2.59 2.653a2.669 2.669 0 0 1 .164.213c.531-.5 1.016-.958 1.5-1.417l4.4-4.172a.939.939 0 0 1 1.348-.082.916.916 0 0 1 .113 1.24 1.4 1.4 0 0 1-.2.213l-6.418 6.088a1.112 1.112 0 0 1-.746.355 1.075 1.075 0 0 1-.763-.383z" transform="translate(-21150.508 -2828.5)" style="stroke:transparent;stroke-miterlimit:10"/>
</svg>
