<svg xmlns="http://www.w3.org/2000/svg" width="21.004" height="21" viewBox="0 0 21.004 21">
    <path data-name="Union 23" d="M21151.008 2839.505a10.5 10.5 0 1 1 10.506 10.494 10.518 10.518 0 0 1-10.506-10.494zm1.705-.008a8.8 8.8 0 1 0 8.793-8.793 8.812 8.812 0 0 0-8.793 8.796zm6.678 3.369q-1.518-1.554-3.039-3.115a.853.853 0 1 1 1.223-1.181q1.184 1.206 2.365 2.423c.051.052.092.12.15.195.484-.456.928-.875 1.365-1.294q2.013-1.906 4.02-3.81a.858.858 0 0 1 1.23-.075.835.835 0 0 1 .105 1.133 1.221 1.221 0 0 1-.184.194q-2.93 2.782-5.859 5.56a1.017 1.017 0 0 1-.682.325.983.983 0 0 1-.694-.355z" transform="translate(-21151.008 -2828.999)" style="fill:#ddb14a"/>
</svg>
