<svg xmlns="http://www.w3.org/2000/svg" width="20.443" height="24" viewBox="0 0 20.443 24">
    <path data-name="Union 17" d="M21154.178 2850.889a6.273 6.273 0 0 1-2.451-1.554 2.646 2.646 0 0 1-.725-1.909 9.632 9.632 0 0 1 2.8-6.685.888.888 0 0 1 1.283-.074.875.875 0 0 1-.01 1.3 7.879 7.879 0 0 0-2.219 4.44c-.047.3-.047.607-.084.908a1.127 1.127 0 0 0 .439 1.021 5.423 5.423 0 0 0 1.828 1 16.792 16.792 0 0 0 5.836.883 15.99 15.99 0 0 0 5.537-.888 10.283 10.283 0 0 0 1.549-.775 1.447 1.447 0 0 0 .719-1.539 8.087 8.087 0 0 0-2.312-5.067.884.884 0 0 1 .381-1.539.838.838 0 0 1 .828.252 9.494 9.494 0 0 1 2.762 5.417 8.67 8.67 0 0 1 .094 1.756 2.56 2.56 0 0 1-.937 1.731 7.534 7.534 0 0 1-2.812 1.539 19.507 19.507 0 0 1-6.039.888 18.509 18.509 0 0 1-6.467-1.105zm.361-15.693a6.191 6.191 0 1 1 6.221 6.187 6.2 6.2 0 0 1-6.221-6.183zm1.77-.03a4.421 4.421 0 1 0 4.408-4.4 4.43 4.43 0 0 0-4.408 4.4z" transform="translate(-21150.5 -2828.5)" style="fill:#ddb14a;stroke:transparent;stroke-miterlimit:10"/>
</svg>
