<svg width="194" height="27" viewBox="0 0 194 27" xmlns="http://www.w3.org/2000/svg" xmlns:xlink="http://www.w3.org/1999/xlink">
    <defs>
        <path id="3kkfgj8v9a" d="M0 0h16.404v16.005H0z"/>
        <path id="mzw0k8f66c" d="M0 0h15.802v16.003H0z"/>
    </defs>
    <g fill="none" fill-rule="evenodd">
        <path d="M112.782 10.335c-.12-1.618-.668-3.05-1.892-4.16-.99-.9-2.187-1.359-3.503-1.516-1.736-.206-3.394.002-4.903.958-.631.4-1.16.91-1.601 1.56-1.166-1.843-2.897-2.557-4.955-2.588-2.046-.031-3.845.545-5.152 2.355V4.576H87.79a.89.89 0 0 0-.89.89v15.13h3.88v-.385c0-2.428-.002-5.342.002-7.77.001-.3.018-.603.05-.902.2-1.917 1.79-3.443 3.716-3.472 1.638-.024 2.813.828 3.191 2.364.116.47.156.968.16 1.454.014 2.604.006 5.695.006 8.3v.406h3.866v-.424c0-2.386-.001-5.259.002-7.645 0-.199.006-.398.017-.597.112-2.056 1.69-3.78 3.75-3.829 1.653-.04 2.861.863 3.228 2.464.106.462.135.95.137 1.425.013 2.574.006 5.634.006 8.207v.399h3.9v-9.444c0-.271-.008-.542-.028-.812M69.235 15.614c-1.656.466-3.194.183-4.465-1.044-.787-.76-1.056-1.746-1.075-2.813-.006-2.07 1.506-3.766 3.608-3.997 1.828-.202 3.364.367 4.348 1.973 1.357 2.218.143 5.16-2.416 5.88m7.12-11.037-.419.003c-2.545 0-5.091-.008-7.637.005-.603.003-1.212.028-1.808.12-2.006.306-3.708 1.177-4.944 2.828-1.182 1.58-1.5 3.382-1.26 5.3.353 2.813 1.878 4.692 4.565 5.625 1.201.416 2.453.425 3.702.505.7.046 1.406.18 2.078.379.652.193 1.093.673 1.24 1.37.253 1.203-.326 2.242-1.536 2.741-.778.32-1.593.367-2.426.366-1.896-.002-3.065-1.266-3.697-2.277-.436-.697-1.267-1.038-2.056-.804-.597.177-1.485.568-1.945.704.95 1.898 2.557 4.192 4.782 5.008 1.505.552 3.048.647 4.622.47 1.449-.163 2.813-.552 4.018-1.42 2.57-1.85 2.776-6.04-.161-7.897-.148-.093-.294-.19-.468-.302 1.617-1.27 2.492-2.914 2.675-4.925.188-2.057-.635-3.747-1.967-5.25 2.066-.454 2.374-1.375 2.642-2.549" fill="#0F4634"/>
        <path d="M139.6 17.063c-2.525-.057-4.39-2.045-4.323-4.609.066-2.545 1.978-4.413 4.46-4.358 2.596.058 4.49 1.989 4.419 4.505-.074 2.612-2.02 4.518-4.557 4.462m-1.652-12.288c-5.513 1.095-7.908 6.651-5.758 11.224 1.1 2.339 2.881 3.678 5.248 4.265a9.572 9.572 0 0 0 4.654-.024c5.639-1.476 7.841-8.39 4.035-12.779-2.16-2.49-4.992-3.319-8.18-2.686" fill="#4E9259"/>
        <path d="M46.614 11.15c-.02-1.632 2.012-3.413 3.935-3.466 2.14-.058 4.023 1.515 4.106 3.467h-8.04zm4.542-6.55c-2.272-.111-4.302.524-5.95 2.126-1.787 1.737-2.487 3.917-2.353 6.36.14 2.532 1.155 4.629 3.292 6.093 1.633 1.118 3.477 1.474 5.418 1.377 1.695-.085 3.26-.57 4.595-1.664a6.214 6.214 0 0 0 1.27-1.382c-.904-.628-1.774-1.232-2.638-1.83-1.563 1.75-3.466 2.116-5.596 1.422-1.528-.498-2.334-1.658-2.666-3.229h.402c3.62 0 7.24-.002 10.861.006.26 0 .386-.054.385-.335 0-.238.053-.475.068-.714.144-2.38-.545-4.47-2.25-6.168-1.327-1.322-2.976-1.97-4.838-2.062z" fill="#0F4634"/>
        <path d="M127.182 4.618c-.263-.003-.368.092-.454.326-1.006 2.714-2.022 5.425-3.036 8.136l-1.036 2.764-.084.003c-.046-.126-.095-.252-.14-.379-1.237-3.51-2.477-7.018-3.705-10.531-.086-.245-.2-.321-.455-.318l-3.935.013c.04.107.103.262.146.366 1.986 4.894 3.971 9.788 5.965 14.678.09.22.071.39-.028.597-.945 1.982-1.88 3.969-2.818 5.955-.047.099-.083.203-.136.336 1.296 0 2.54-.01 3.782.008.288.004.423-.082.537-.347 3.045-7.073 6.1-14.142 9.151-21.211.048-.112.112-.25.168-.396h-3.922zM152.217.01a1.26 1.26 0 0 0-1.273 1.259c.007 6.594.005 12.733.006 19.327l.019.018h2.97a.89.89 0 0 0 .889-.89V.027c-.125-.007-.226-.017-.328-.017-.761-.001-1.522.004-2.283.001" fill="#4E9259"/>
        <g transform="translate(177.157 4.558)">
            <mask id="nzvogbvvcb" fill="#fff">
                <use xlink:href="#3kkfgj8v9a"/>
            </mask>
            <path d="M8.274 12.503C5.71 12.487 3.832 10.58 3.84 8.002c.009-2.559 1.908-4.454 4.476-4.466 2.505-.011 4.533 2.016 4.51 4.505-.024 2.52-2.023 4.478-4.553 4.462M16.092.015h-.77c-.176-.003-.34-.003-.493-.001h-.857c-.7 0-1.266.567-1.266 1.268v1.333c-.001-.002-.007-.004-.009-.006a3.357 3.357 0 0 1-.133-.172C11.956 1.6 11.186.954 10.23.557c-2.203-.915-4.352-.671-6.367.502C1.36 2.516.18 4.815.015 7.648c-.252 4.327 2.696 7.992 6.896 8.33 2.203.177 4.062-.515 5.518-2.207.07-.082.138-.168.208-.252l.074.021v2.406h3.694V.019c-.12-.002-.216-.004-.313-.004" fill="#4E9259" mask="url(#nzvogbvvcb)"/>
        </g>
        <path d="M18.503 20.66h2.96a.89.89 0 0 0 .89-.888V4.576h-2.96a.89.89 0 0 0-.89.89V20.66zM79.082 20.596h2.972a.89.89 0 0 0 .89-.89V4.577H79.97a.89.89 0 0 0-.889.89v15.13zM5.976 23.15V25.1H8.66c.644 0 1.166-.522 1.166-1.165v-1.952H7.14c-.644 0-1.165.522-1.165 1.166M31.311 23.15V25.1h2.685c.644 0 1.166-.522 1.166-1.165v-1.952h-2.685c-.644 0-1.166.522-1.166 1.166M18.503 1.193v1.952h2.685c.643 0 1.165-.522 1.165-1.165V.028H19.67c-.644 0-1.166.522-1.166 1.165M79.088 1.193v1.952h2.684c.644 0 1.166-.522 1.166-1.165V.028h-2.685c-.644 0-1.165.522-1.165 1.165" fill="#0F4634"/>
        <g transform="translate(0 4.592)">
            <mask id="5o78pnsc8d" fill="#fff">
                <use xlink:href="#mzw0k8f66c"/>
            </mask>
            <path d="M12.22 9.842c-1.347 3.104-4.911 3.168-6.661 1.75-1.41-1.144-1.853-2.671-1.61-4.42.266-1.93 1.7-3.353 3.608-3.624 2.003-.284 3.744.663 4.562 2.48.04.091.084.18.132.28l3.494-1.12c-.24-.88-1.096-2.208-1.912-2.976C12.023.506 9.848-.151 7.4.029 3.333.329.407 3.21.036 7.259a8.228 8.228 0 0 0 .463 3.61l.025.068c.057.148.115.296.18.44C1.847 14 4.287 15.746 7.4 15.975c2.448.18 4.622-.477 6.433-2.183.773-.728 1.575-1.954 1.862-2.83.016-.036.035-.07.05-.107.028-.072.035-.152.057-.25l-3.437-1.088c-.061.138-.104.231-.145.326" fill="#0F4634" mask="url(#5o78pnsc8d)"/>
        </g>
        <path d="M37.455 10.62c.04.091.084.18.131.28l3.495-1.12c-.24-.88-1.096-2.207-1.912-2.976-1.81-1.705-3.985-2.363-6.433-2.183-4.067.3-6.994 3.181-7.364 7.23a8.228 8.228 0 0 0 .462 3.61l.026.067c.057.15.115.297.18.442 1.142 2.62 3.582 4.367 6.696 4.596 2.448.18 4.622-.478 6.433-2.183.773-.728 1.575-1.954 1.862-2.83.015-.036.034-.07.049-.106.029-.072.035-.153.057-.25l-3.436-1.09-.146.327c-1.346 3.104-4.91 3.168-6.66 1.75-1.41-1.145-1.853-2.671-1.611-4.42.267-1.93 1.7-3.353 3.61-3.624 2.002-.284 3.743.662 4.56 2.48M74.396.015h-8.138a3.13 3.13 0 0 0-3.13 3.13h8.138a3.13 3.13 0 0 0 3.13-3.13" fill="#0F4634"/>
        <path d="M166.09 17.064c-2.56.012-4.446-1.877-4.463-4.468-.017-2.572 1.893-4.494 4.47-4.5a4.469 4.469 0 0 1 4.506 4.472c.008 2.512-1.97 4.483-4.513 4.496zM171.603 0a1.12 1.12 0 0 0-1.121 1.12v6.03c-.1-.125-.151-.184-.198-.246-.588-.776-1.35-1.415-2.255-1.774-2.786-1.105-5.34-.57-7.55 1.354-2.188 1.902-2.895 4.429-2.594 7.256.389 3.642 3.159 6.496 6.763 6.793 2.278.188 4.184-.527 5.66-2.3.038-.045.089-.087.174-.166v2.453H174.216V0h-2.613z" fill="#4E9259"/>
    </g>
</svg>
