<svg xmlns="http://www.w3.org/2000/svg" width="42.886" height="28.591" viewBox="0 0 42.886 28.591">
    <path data-name="Fill 49" d="M0 3.574A3.574 3.574 0 0 1 3.574 0h35.738a3.574 3.574 0 0 1 3.574 3.574v21.443a3.574 3.574 0 0 1-3.574 3.574H3.574A3.574 3.574 0 0 1 0 25.017z" style="fill:#ebebeb"/>
    <path data-name="Fill 50" d="M3.03 10.659H0L4.284.888A1.474 1.474 0 0 1 5.8 0h2.246l2.4 10.606H7.733c0-.007-.261-1.2-.365-1.568h-3.71c-.1.307-.606 1.566-.627 1.619zm2.613-6.792c-.019.051-.893 2.361-1.149 2.977V6.9H6.9c-.1-.509-.656-2.977-.679-3.082l-.209-.941a8.206 8.206 0 0 1-.364 1z" transform="translate(28.862 8.966)" style="fill:#3362ab"/>
    <path data-name="Fill 51" d="M8.308 7.315c0 2.194-1.985 3.657-5.068 3.657A8.567 8.567 0 0 1 0 10.4L.418 8l.366.157a5.764 5.764 0 0 0 2.716.569c.836 0 1.724-.313 1.724-1.045 0-.47-.366-.784-1.515-1.306-1.1-.522-2.56-1.358-2.56-2.874 0-2.09 2.038-3.5 4.911-3.5A6.667 6.667 0 0 1 8.673.47l-.418 2.3-.209-.21a5.615 5.615 0 0 0-2.194-.418c-1.1.052-1.62.522-1.62.94 0 .47.627.836 1.62 1.306 1.672.785 2.456 1.673 2.456 2.927z" transform="translate(20.764 8.809)" style="fill:#3362ab"/>
    <path data-name="Fill 52" d="M0 .209.052 0h4.494A1.108 1.108 0 0 1 5.8.888l.993 4.7A9.216 9.216 0 0 0 0 .209z" transform="translate(3.574 8.861)" style="fill:#f9b50b"/>
    <path data-name="Fill 53" d="M10.241.052 5.7 10.659H2.612L0 1.776a11.513 11.513 0 0 1 4.023 4.389l.313 1.1L7.158 0h3.083z" transform="translate(6.448 8.914)" style="fill:#3362ab"/>
    <path data-name="Fill 54" d="M1.829 0H4.7L2.874 10.659H0z" transform="translate(16.061 8.914)" style="fill:#3362ab"/>
</svg>
